<svg width="697" height="260" viewBox="0 0 697 260" fill="none" xmlns="http://www.w3.org/2000/svg">
<path d="M0 214.5V167.25L82.1172 15H139.774L57.6568 165.5H125.797V109.5H129.291H178.212V165.5H211.408V214.5H178.212V260H125.797V214.5H0Z" fill="#6F5CEA"/>
<path d="M485.592 214.5V167.25L567.709 15H625.366L543.249 165.5H611.388V109.5H614.883H663.804V165.5H697V214.5H663.804V260H611.388V214.5H485.592Z" fill="#6F5CEA"/>
<path d="M356.278 231.83L340.166 218.102C340.248 218.074 340.303 218.074 340.385 218.047L356.497 231.775C356.415 231.802 356.333 231.802 356.278 231.83Z" fill="#FECF10"/>
<path d="M356.471 231.776L340.359 218.048C341.592 217.746 342.826 217.445 344.031 217.089L360.143 230.817C358.938 231.173 357.704 231.475 356.471 231.776Z" fill="#FED110"/>
<path d="M360.142 230.816L344.03 217.088C345.263 216.759 346.469 216.376 347.675 215.992L363.787 229.72C362.581 230.104 361.375 230.488 360.142 230.816Z" fill="#FED211"/>
<path d="M363.813 229.721L347.701 215.993C348.989 215.582 350.277 215.144 351.565 214.678L367.677 228.406C366.389 228.872 365.101 229.31 363.813 229.721Z" fill="#FED411"/>
<path d="M367.677 228.406L351.565 214.678C352.853 214.212 354.114 213.719 355.402 213.226L371.514 226.954C370.226 227.474 368.965 227.968 367.677 228.406Z" fill="#FED611"/>
<path d="M371.486 226.954L355.374 213.226C356.607 212.733 357.813 212.212 359.046 211.691L375.158 225.42C373.952 225.94 372.719 226.461 371.486 226.954Z" fill="#FED811"/>
<path d="M375.157 225.419L359.045 211.691C360.251 211.143 361.456 210.595 362.662 210.02L378.774 223.748C377.596 224.323 376.39 224.871 375.157 225.419Z" fill="#FEDA11"/>
<path d="M378.801 223.748L362.689 210.02C363.84 209.445 365.019 208.869 366.169 208.267L382.281 221.995C381.103 222.598 379.952 223.173 378.801 223.748Z" fill="#FEDC11"/>
<path d="M382.257 221.993L366.145 208.265C367.295 207.662 368.446 207.059 369.597 206.401L385.709 220.157C384.558 220.787 383.435 221.39 382.257 221.993Z" fill="#FEDD12"/>
<path d="M385.708 220.157L369.596 206.429C370.719 205.799 371.843 205.141 372.966 204.483L389.078 218.212C387.955 218.869 386.831 219.527 385.708 220.157Z" fill="#FEDF12"/>
<path d="M389.077 218.212L372.965 204.484C374.088 203.826 375.184 203.141 376.28 202.429L392.392 216.157C391.296 216.842 390.173 217.527 389.077 218.212Z" fill="#FEE112"/>
<path d="M392.392 216.157L376.28 202.428C377.404 201.716 378.5 201.004 379.596 200.236L395.708 213.964C394.612 214.704 393.488 215.444 392.392 216.157Z" fill="#FEE312"/>
<path d="M395.68 213.966L379.568 200.238C380.664 199.498 381.76 198.731 382.829 197.964L398.941 211.692C397.873 212.459 396.804 213.226 395.68 213.966Z" fill="#FEE83F"/>
<path d="M398.969 211.691L382.857 197.962C384.008 197.14 385.159 196.291 386.283 195.414L402.395 209.142C401.271 209.992 400.12 210.841 398.969 211.691Z" fill="#FEEB52"/>
<path d="M402.395 209.142L386.283 195.414C387.434 194.537 388.585 193.633 389.708 192.701L405.82 206.429C404.697 207.361 403.546 208.265 402.395 209.142Z" fill="#FEEC61"/>
<path d="M405.82 206.429L389.708 192.701C391.023 191.605 392.339 190.509 393.654 189.386L409.766 203.114C408.451 204.237 407.163 205.361 405.82 206.429Z" fill="#FEEE6E"/>
<path d="M409.764 203.115L393.652 189.387C395.132 188.099 396.584 186.784 398.009 185.441L414.121 199.17C412.669 200.512 411.217 201.827 409.764 203.115Z" fill="#FEF079"/>
<path d="M414.093 199.168L397.981 185.44C400.064 183.467 402.119 181.439 404.092 179.356L420.204 193.085C418.231 195.167 416.203 197.195 414.093 199.168Z" fill="#FFF082"/>
<path d="M420.233 193.085L404.121 179.356C408.039 175.219 411.766 170.889 415.219 166.341L431.331 180.069C427.878 184.618 424.152 188.947 420.233 193.085Z" fill="#FFF18B"/>
<path d="M431.329 180.069L415.217 166.341C416.97 164.067 418.642 161.71 420.259 159.354L436.371 173.082C434.754 175.466 433.083 177.795 431.329 180.069Z" fill="#FFF082"/>
<path d="M436.374 173.082L420.262 159.354C421.413 157.682 422.509 155.956 423.605 154.229L439.717 167.958C438.648 169.684 437.525 171.41 436.374 173.082Z" fill="#FEF079"/>
<path d="M439.716 167.984L423.604 154.256C424.453 152.913 425.275 151.543 426.07 150.173L442.182 163.901C441.387 165.271 440.565 166.614 439.716 167.984Z" fill="#FEEE6E"/>
<path d="M442.18 163.876L426.068 150.148C426.836 148.833 427.575 147.49 428.315 146.175L444.427 159.903C443.687 161.246 442.948 162.561 442.18 163.876Z" fill="#FEEC61"/>
<path d="M444.427 159.904L428.315 146.176C428.973 144.943 429.631 143.737 430.234 142.477L446.346 156.205C445.715 157.465 445.085 158.671 444.427 159.904Z" fill="#FEEB52"/>
<path d="M446.347 156.203L430.235 142.475C430.838 141.269 431.441 140.036 432.016 138.803L448.128 152.531C447.553 153.764 446.95 154.997 446.347 156.203Z" fill="#FEE83F"/>
<path d="M448.126 152.558L432.014 138.83C432.562 137.652 433.11 136.473 433.63 135.268L449.742 148.996C449.222 150.174 448.674 151.38 448.126 152.558Z" fill="#FEE312"/>
<path d="M449.745 148.993L433.633 135.265C434.153 134.06 434.647 132.881 435.14 131.676L451.252 145.404C450.759 146.582 450.265 147.788 449.745 148.993Z" fill="#FEE112"/>
<path d="M451.253 145.407L435.141 131.679C435.634 130.473 436.1 129.267 436.538 128.062L452.65 141.79C452.184 142.995 451.718 144.201 451.253 145.407Z" fill="#FEDF12"/>
<path d="M452.622 141.762L436.51 128.034C436.948 126.828 437.387 125.595 437.798 124.39L453.91 138.118C453.499 139.323 453.088 140.556 452.622 141.762Z" fill="#FEDD12"/>
<path d="M453.909 138.118L437.797 124.39C438.208 123.129 438.619 121.896 439.003 120.636L455.115 134.364C454.731 135.597 454.347 136.857 453.909 138.118Z" fill="#FEDC11"/>
<path d="M453.909 138.118L437.797 124.39C438.208 123.129 438.619 121.896 439.003 120.636L455.115 134.364C454.731 135.597 454.347 136.857 453.909 138.118Z" fill="#FEDC11"/>
<path d="M455.116 134.361L439.004 120.633C439.388 119.372 439.744 118.112 440.073 116.852L456.185 130.58C455.856 131.84 455.5 133.101 455.116 134.361Z" fill="#FEDA11"/>
<path d="M456.183 130.555L440.071 116.827C440.428 115.511 440.729 114.196 441.03 112.881L457.142 126.609C456.841 127.952 456.54 129.267 456.183 130.555Z" fill="#FED811"/>
<path d="M457.141 126.637L441.029 112.909C441.331 111.593 441.605 110.278 441.851 108.99L457.963 122.718C457.717 124.006 457.443 125.321 457.141 126.637Z" fill="#FED611"/>
<path d="M457.992 122.69L441.88 108.962C442.099 107.756 442.318 106.578 442.51 105.372L458.622 119.1C458.403 120.306 458.211 121.512 457.992 122.69Z" fill="#FED411"/>
<path d="M458.594 119.126L442.482 105.398C442.674 104.193 442.839 103.014 442.976 101.809L459.088 115.537C458.951 116.715 458.786 117.921 458.594 119.126Z" fill="#FED211"/>
<path d="M459.116 115.539L443.004 101.811C443.031 101.647 443.059 101.455 443.059 101.291C443.223 99.9479 443.36 98.6326 443.442 97.3447L459.554 111.073C459.445 112.388 459.335 113.703 459.171 115.019C459.143 115.183 459.143 115.347 459.116 115.539Z" fill="#FED110"/>
<path d="M459.582 111.045L443.47 97.3172C443.579 95.7827 443.689 94.2482 443.716 92.7686L459.828 106.497C459.774 108.004 459.691 109.511 459.582 111.045Z" fill="#FECF10"/>
<path d="M459.828 106.496L443.716 92.7683C443.771 91.2338 443.771 89.7267 443.743 88.2471L459.855 101.975C459.883 103.455 459.883 104.962 459.828 106.496Z" fill="#FECD10"/>
<path d="M459.854 101.974L443.742 88.2458C443.714 86.7114 443.659 85.2043 443.55 83.7246L459.689 97.4253C459.771 98.9324 459.854 100.439 459.854 101.974Z" fill="#FECB10"/>
<path d="M459.691 97.4241L443.579 83.696C443.469 82.1615 443.332 80.6818 443.141 79.2021L459.253 92.9303C459.417 94.4099 459.581 95.917 459.691 97.4241Z" fill="#FEC910"/>
<path d="M459.251 92.9333L443.139 79.2052C442.947 77.6159 442.701 76.0267 442.399 74.4922L458.511 88.2203C458.813 89.7548 459.059 91.3167 459.251 92.9333Z" fill="#FEC710"/>
<path d="M458.513 88.2188L442.401 74.4907C442.099 72.8466 441.716 71.2299 441.332 69.6406L457.444 83.3687C457.828 84.9306 458.211 86.5473 458.513 88.2188Z" fill="#FEC60F"/>
<path d="M457.444 83.3414L441.332 69.6133C440.867 67.8596 440.373 66.1607 439.798 64.5166L455.91 78.2447C456.458 79.9162 456.979 81.6151 457.444 83.3414Z" fill="#FEC40F"/>
<path d="M296.187 220.595L280.075 206.867C284.322 210.484 289.145 213.444 294.434 215.69L310.546 229.419C305.257 227.172 300.434 224.212 296.187 220.595Z" fill="#FEBE0F"/>
<path d="M310.546 229.418L294.434 215.689C296.681 216.649 299.037 217.471 301.476 218.156L317.588 231.884C315.149 231.199 312.82 230.377 310.546 229.418Z" fill="#FEC00F"/>
<path d="M317.587 231.858L301.475 218.13C303.393 218.678 305.366 219.116 307.393 219.473L323.505 233.201C321.478 232.872 319.505 232.406 317.587 231.858Z" fill="#FEC20F"/>
<path d="M323.506 233.228L307.394 219.5C309.147 219.801 310.928 220.048 312.737 220.24L328.849 233.968C327.013 233.776 325.232 233.53 323.506 233.228Z" fill="#FEC40F"/>
<path d="M328.823 233.966L312.711 220.238C314.328 220.403 315.972 220.512 317.643 220.567L333.755 234.295C332.084 234.213 330.44 234.131 328.823 233.966Z" fill="#FEC60F"/>
<path d="M333.755 234.269L317.643 220.541C319.177 220.596 320.739 220.596 322.328 220.541L338.44 234.269C336.851 234.324 335.289 234.324 333.755 234.269Z" fill="#FEC710"/>
<path d="M338.44 234.268L322.328 220.54C323.835 220.485 325.37 220.403 326.932 220.266L343.044 233.994C341.482 234.131 339.947 234.213 338.44 234.268Z" fill="#FEC910"/>
<path d="M343.043 233.996L326.931 220.268C328.41 220.131 329.917 219.966 331.424 219.747L347.537 233.475C346.029 233.694 344.522 233.859 343.043 233.996Z" fill="#FECB10"/>
<path d="M347.539 233.476L331.427 219.748C332.906 219.528 334.386 219.282 335.893 219.008L352.005 232.736C350.526 233.037 349.018 233.284 347.539 233.476Z" fill="#FECD10"/>
<path d="M352.031 232.736L335.919 219.008C337.316 218.734 338.741 218.432 340.166 218.104L356.278 231.832C354.853 232.16 353.428 232.462 352.031 232.736Z" fill="#FECF10"/>
<path d="M457.446 83.3404L441.334 69.6123C440.868 67.8586 440.375 66.1597 439.8 64.5156L455.912 78.2437C456.46 79.9152 456.981 81.6141 457.446 83.3404Z" fill="#FEC40F"/>
<path d="M455.883 78.2448L439.771 64.5167C439.114 62.5986 438.346 60.7079 437.524 58.8994L453.636 72.6275C454.486 74.4634 455.226 76.3267 455.883 78.2448Z" fill="#FEC20F"/>
<path d="M453.662 72.6544L437.55 58.9263C436.481 56.5698 435.275 54.3229 433.96 52.1855L450.072 65.9137C451.387 68.051 452.566 70.2979 453.662 72.6544Z" fill="#FEC00F"/>
<path d="M450.047 65.9145L433.934 52.1864C430.866 47.2541 427.139 42.8973 422.837 39.2529L438.949 52.981C443.278 56.6254 446.978 60.9549 450.047 65.9145Z" fill="#FEBE0F"/>
<path d="M381.981 38.8685C432.591 28.0175 462.541 63.5571 452.183 114.469C442.483 162.147 399.874 209.799 354.36 224.239C306.353 239.474 268.813 213.662 273.225 162.696C277.965 107.893 328.219 50.4045 381.981 38.8685Z" fill="#F3A500"/>
<path d="M365.814 93.3425L357.429 87.3416L368.718 84.6562L377.103 90.6572L365.814 93.3425Z" fill="#CF8E00"/>
<path d="M377.105 90.6567L368.556 84.4914L370.611 67.2559L379.16 73.3938L377.105 90.6567Z" fill="#CF8E00"/>
<path d="M390.861 127.019C399.493 127.512 405.439 132.691 403.959 145.049C402.425 157.846 394.451 167.82 383.929 173.738L381.517 194.07L364.309 198.153L366.501 179.739L355.212 182.425L353.02 200.838L335.812 204.921L338.004 186.507L328.797 188.7L339.401 99.5901L348.608 97.398L350.663 80.1625L367.871 76.0797L365.816 93.3152L377.106 90.6298L379.161 73.3943L396.369 69.3115L394.012 89.068C401.493 90.3832 405.987 95.5347 404.781 105.838C403.74 114.496 398.26 122.087 390.861 127.019ZM367.899 164.34C375.982 162.422 384.038 158.914 385.271 148.392C386.559 137.651 378.256 138.281 369.817 140.281L351.814 144.556L348.937 168.834L367.899 164.34ZM355.924 110.414L353.431 131.321L370.557 127.238C377.434 125.594 384.97 122.47 386.038 113.455C387.107 104.468 380.284 104.632 373.023 106.358L355.924 110.414Z" fill="#FFD12B"/>
<path d="M379.16 73.3946L370.61 67.2567L387.818 63.1465L396.34 69.3118L379.16 73.3946Z" fill="#CF8E00"/>
<path d="M339.401 99.6162L330.852 93.4509L340.058 91.2588L348.608 97.4241L339.401 99.6162Z" fill="#CF8E00"/>
<path d="M328.795 188.728L320.273 182.617L330.878 93.5078L339.4 99.6183L328.795 188.728Z" fill="#CF8E00"/>
<path d="M348.607 97.4235L339.948 91.1486L342.003 73.9131L350.635 80.188L348.607 97.4235Z" fill="#CF8E00"/>
<path d="M350.633 80.1899L342.002 73.915L359.265 69.75L367.869 76.0797L350.633 80.1899Z" fill="#CF8E00"/>
<path d="M381.845 16.838L365.733 3.10984C367.542 2.67142 369.323 2.2878 371.104 1.95898L387.216 15.6871C385.435 16.0433 383.654 16.4269 381.845 16.838Z" fill="#FECF10"/>
<path d="M387.216 15.6871L371.104 1.95899C372.994 1.60277 374.885 1.27396 376.748 1.02734L392.86 14.7555C390.997 15.0295 389.106 15.3309 387.216 15.6871Z" fill="#FECD10"/>
<path d="M392.86 14.7549L376.748 1.02678C378.666 0.752761 380.557 0.533549 382.42 0.369141L398.532 14.0973C396.669 14.2617 394.751 14.4809 392.86 14.7549Z" fill="#FECB10"/>
<path d="M398.532 14.098L382.42 0.36989C384.393 0.205482 386.311 0.0684747 388.229 0.0136719L404.341 13.7418C402.423 13.824 400.477 13.9336 398.532 14.098Z" fill="#FEC910"/>
<path d="M404.342 13.7692L388.229 0.0411021C390.23 -0.0137007 392.175 -0.0137007 394.121 0.0411021L410.233 13.7692C408.315 13.687 406.342 13.687 404.342 13.7692Z" fill="#FEC710"/>
<path d="M410.235 13.7418L394.123 0.0136719C396.233 0.0684747 398.315 0.205482 400.343 0.424693L416.455 14.1528C414.428 13.961 412.345 13.824 410.235 13.7418Z" fill="#FEC60F"/>
<path d="M416.48 14.151L400.368 0.422852C402.642 0.642063 404.889 0.97088 407.082 1.3545L423.194 15.0826C421.001 14.699 418.755 14.3702 416.48 14.151Z" fill="#FEC40F"/>
<path d="M423.194 15.0846L407.082 1.35645C409.63 1.82227 412.124 2.3977 414.535 3.05533L430.647 16.7835C428.236 16.1258 425.742 15.5504 423.194 15.0846Z" fill="#FEC20F"/>
<path d="M430.646 16.7838L414.534 3.05566C417.603 3.90511 420.563 4.94636 423.412 6.15203L439.524 19.8801C436.675 18.6745 433.715 17.6606 430.646 16.7838Z" fill="#FEC00F"/>
<path d="M439.525 19.8795L423.413 6.15137C430.099 8.97371 436.182 12.7003 441.525 17.2763L457.637 31.0045C452.267 26.4284 446.211 22.7018 439.525 19.8795Z" fill="#FEBE0F"/>
<path d="M277.499 242.544L261.387 228.816C255.961 224.185 251.248 218.732 247.385 212.484L263.497 226.212C267.388 232.433 272.073 237.913 277.499 242.544Z" fill="#FEBE0F"/>
<path d="M263.525 226.21L247.413 212.482C245.741 209.796 244.234 206.947 242.864 203.987L258.976 217.715C260.319 220.675 261.853 223.497 263.525 226.21Z" fill="#FEC00F"/>
<path d="M258.975 217.689L242.863 203.961C241.822 201.687 240.89 199.33 240.041 196.892L256.153 210.62C256.975 213.058 257.934 215.415 258.975 217.689Z" fill="#FEC20F"/>
<path d="M256.153 210.618L240.041 196.89C239.329 194.807 238.671 192.642 238.096 190.45L254.208 204.178C254.783 206.37 255.413 208.535 256.153 210.618Z" fill="#FEC40F"/>
<path d="M254.208 204.179L238.096 190.451C237.575 188.451 237.109 186.423 236.726 184.341L252.838 198.069C253.221 200.151 253.687 202.179 254.208 204.179Z" fill="#FEC60F"/>
<path d="M252.839 198.07L236.727 184.342C236.37 182.396 236.042 180.396 235.795 178.396L251.907 192.124C252.154 194.124 252.482 196.124 252.839 198.07Z" fill="#FEC710"/>
<path d="M251.906 192.096L235.794 178.367C235.575 176.504 235.383 174.613 235.246 172.695L251.358 186.423C251.495 188.342 251.687 190.232 251.906 192.096Z" fill="#FEC910"/>
<path d="M251.359 186.424L235.247 172.696C235.11 170.805 235.027 168.914 235 166.969L251.112 180.697C251.167 182.642 251.249 184.533 251.359 186.424Z" fill="#FECB10"/>
<path d="M251.138 180.697L235.026 166.969C234.999 165.078 235.026 163.188 235.081 161.27L251.193 174.998C251.111 176.916 251.111 178.834 251.138 180.697Z" fill="#FECD10"/>
<path d="M251.166 174.996L235.054 161.268C235.109 159.377 235.218 157.459 235.383 155.514L251.495 169.242C251.358 171.187 251.248 173.105 251.166 174.996Z" fill="#FECF10"/>
<path d="M251.495 169.243L235.383 155.515C235.52 153.871 235.684 152.199 235.876 150.528C235.903 150.309 235.931 150.089 235.958 149.87L252.07 163.598C252.043 163.817 252.015 164.037 251.988 164.256C251.796 165.927 251.632 167.599 251.495 169.243Z" fill="#FED110"/>
<path d="M252.07 163.599L235.958 149.871C236.15 148.364 236.369 146.857 236.588 145.35L252.7 159.078C252.481 160.585 252.262 162.092 252.07 163.599Z" fill="#FED211"/>
<path d="M252.728 159.05L236.616 145.322C236.863 143.815 237.109 142.308 237.411 140.801L253.523 154.529C253.221 156.036 252.975 157.543 252.728 159.05Z" fill="#FED411"/>
<path d="M253.523 154.528L237.411 140.799C237.74 139.155 238.069 137.484 238.452 135.84L254.564 149.568C254.181 151.212 253.825 152.884 253.523 154.528Z" fill="#FED611"/>
<path d="M254.564 149.569L238.452 135.841C238.836 134.169 239.247 132.525 239.685 130.881L255.797 144.609C255.359 146.253 254.948 147.925 254.564 149.569Z" fill="#FED811"/>
<path d="M255.798 144.609L239.686 130.881C240.097 129.292 240.562 127.703 241.028 126.113L257.14 139.841C256.647 141.403 256.209 143.02 255.798 144.609Z" fill="#FEDA11"/>
<path d="M257.141 139.815L241.029 126.087C241.495 124.498 242.016 122.909 242.536 121.347L258.648 135.075C258.128 136.664 257.607 138.226 257.141 139.815Z" fill="#FEDC11"/>
<path d="M258.647 135.074L242.535 121.346C243.056 119.811 243.604 118.277 244.152 116.742L260.264 130.47C259.688 132.005 259.168 133.539 258.647 135.074Z" fill="#FEDD12"/>
<path d="M260.263 130.471L244.151 116.743C244.727 115.209 245.302 113.701 245.905 112.167L262.017 125.895C261.414 127.402 260.811 128.937 260.263 130.471Z" fill="#FEDF12"/>
<path d="M262.019 125.894L245.907 112.166C246.51 110.631 247.168 109.124 247.825 107.617L263.937 121.345C263.28 122.852 262.622 124.359 262.019 125.894Z" fill="#FEE112"/>
<path d="M263.935 121.347L247.823 107.619C248.481 106.112 249.166 104.605 249.878 103.098L265.99 116.826C265.278 118.305 264.593 119.813 263.935 121.347Z" fill="#FEE312"/>
<path d="M265.964 116.824L249.852 103.096C250.564 101.561 251.331 99.9993 252.098 98.4922L268.211 112.22C267.443 113.727 266.703 115.262 265.964 116.824Z" fill="#FEE83F"/>
<path d="M268.211 112.193L252.099 98.4648C252.893 96.9029 253.688 95.3685 254.51 93.834L270.622 107.562C269.8 109.097 269.005 110.658 268.211 112.193Z" fill="#FEEB52"/>
<path d="M270.649 107.561L254.537 93.8328C255.441 92.1613 256.373 90.4898 257.359 88.8184L273.471 102.546C272.485 104.218 271.553 105.889 270.649 107.561Z" fill="#FEEC61"/>
<path d="M273.445 102.55L257.333 88.8214C258.347 87.0951 259.388 85.3688 260.429 83.6699L276.541 97.398C275.5 99.0969 274.459 100.823 273.445 102.55Z" fill="#FEEE6E"/>
<path d="M276.568 97.396L260.456 83.6679C261.826 81.5031 263.224 79.3384 264.676 77.2285L280.788 90.9566C279.308 93.0665 277.911 95.2313 276.568 97.396Z" fill="#FEF079"/>
<path d="M280.761 90.9576L264.649 77.2295C266.677 74.2428 268.814 71.2834 271.007 68.4062L287.119 82.1344C284.926 85.0115 282.817 87.9435 280.761 90.9576Z" fill="#FFF082"/>
<path d="M287.145 82.1347L271.033 68.4066C275.39 62.6797 280.076 57.1994 285.035 51.9932L301.147 65.7213C296.188 70.9276 291.502 76.4078 287.145 82.1347Z" fill="#FFF18B"/>
<path d="M301.146 65.7189L285.034 51.9908C287.555 49.3602 290.131 46.7845 292.761 44.3184L308.873 58.0465C306.215 60.5126 303.64 63.0883 301.146 65.7189Z" fill="#FFF082"/>
<path d="M308.875 58.0501L292.763 44.322C294.571 42.6231 296.38 40.979 298.243 39.3623L314.355 53.0904C312.492 54.6797 310.656 56.3512 308.875 58.0501Z" fill="#FEF079"/>
<path d="M314.355 53.0602L298.243 39.3321C299.887 37.9072 301.531 36.5097 303.203 35.1396L319.315 48.8678C317.643 50.2378 315.999 51.6353 314.355 53.0602Z" fill="#FEEE6E"/>
<path d="M319.313 48.8671L303.201 35.139C304.626 33.9881 306.078 32.8373 307.531 31.7412L323.643 45.4693C322.19 46.5928 320.738 47.7162 319.313 48.8671Z" fill="#FEEC61"/>
<path d="M323.643 45.4702L307.531 31.7421C308.956 30.646 310.408 29.5774 311.861 28.5361L327.973 42.2643C326.52 43.3055 325.068 44.3742 323.643 45.4702Z" fill="#FEEB52"/>
<path d="M327.972 42.2674L311.86 28.5393C313.23 27.5528 314.6 26.5938 315.971 25.6621L332.083 39.3902C330.713 40.3219 329.342 41.2809 327.972 42.2674Z" fill="#FEE83F"/>
<path d="M332.083 39.3599L315.971 25.6317C317.341 24.7001 318.738 23.7684 320.136 22.8916L336.248 36.6197C334.878 37.524 333.48 38.4282 332.083 39.3599Z" fill="#FEE312"/>
<path d="M336.276 36.6193L320.164 22.8912C321.562 22.0143 322.932 21.1375 324.356 20.3154L340.469 34.0435C339.044 34.8656 337.646 35.7424 336.276 36.6193Z" fill="#FEE112"/>
<path d="M340.44 34.0438L324.328 20.3157C325.726 19.4662 327.15 18.6442 328.575 17.877L344.687 31.6051C343.263 32.3723 341.865 33.1944 340.44 34.0438Z" fill="#FEDF12"/>
<path d="M344.689 31.5778L328.577 17.8497C330.002 17.055 331.454 16.2604 332.907 15.4932L349.019 29.2213C347.566 29.9885 346.141 30.7832 344.689 31.5778Z" fill="#FEDD12"/>
<path d="M349.046 29.2513L332.934 15.5232C334.386 14.7559 335.866 14.0435 337.318 13.3311L353.43 27.0592C351.95 27.7442 350.498 28.484 349.046 29.2513Z" fill="#FEDC11"/>
<path d="M353.428 27.0578L337.316 13.3296C338.823 12.5898 340.358 11.9048 341.892 11.2197L358.004 24.9478C356.47 25.6055 354.936 26.3179 353.428 27.0578Z" fill="#FEDA11"/>
<path d="M358.005 24.948L341.893 11.2199C343.427 10.5349 344.962 9.90465 346.523 9.27441L362.635 23.0025C361.074 23.6054 359.539 24.263 358.005 24.948Z" fill="#FED811"/>
<path d="M362.61 22.9761L346.498 9.24801C348.115 8.61777 349.704 7.98754 351.321 7.41211L367.433 21.1402C365.843 21.7431 364.227 22.3459 362.61 22.9761Z" fill="#FED611"/>
<path d="M367.458 21.1378L351.346 7.40971C352.962 6.83428 354.579 6.28625 356.223 5.76562L372.335 19.4937C370.691 20.0144 369.074 20.5624 367.458 21.1378Z" fill="#FED411"/>
<path d="M372.337 19.4937L356.225 5.76558C357.759 5.27235 359.294 4.80653 360.828 4.39551L376.94 18.1236C375.406 18.5346 373.871 19.0005 372.337 19.4937Z" fill="#FED211"/>
<path d="M376.939 18.1232L360.827 4.39512C362.362 3.95669 363.924 3.57307 365.458 3.18945L381.57 16.9176C380.036 17.2738 378.474 17.6848 376.939 18.1232Z" fill="#FED110"/>
<path d="M381.571 16.9187L365.459 3.19054C365.541 3.16314 365.623 3.13574 365.706 3.13574L381.818 16.8639C381.763 16.8639 381.653 16.8913 381.571 16.9187Z" fill="#FECF10"/>
<path d="M381.846 16.8383C445.664 1.65796 491.04 43.0341 483.149 109.291C475.285 175.52 417.139 241.503 353.321 256.683C289.503 271.863 244.126 230.487 251.99 164.258C259.882 98.0288 318 32.0187 381.846 16.8383ZM356.28 231.83C406.863 219.801 452.952 167.464 459.172 115.018C465.42 62.5165 429.469 29.717 378.859 41.7462C328.276 53.7755 282.187 106.085 275.967 158.559C269.746 211.032 305.67 243.859 356.28 231.83Z" fill="#FEC00F"/>
</svg>
