<svg width="54" height="55" viewBox="0 0 54 55" fill="none" xmlns="http://www.w3.org/2000/svg">
<g clip-path="url(#clip0_199_903)">
<path d="M50.6438 9.9827C50.0167 9.23003 49.2315 8.62468 48.344 8.20965C47.4565 7.79462 46.4885 7.58008 45.5088 7.58128H9.45851L9.36486 6.79864C9.17322 5.17187 8.39133 3.67197 7.16744 2.58329C5.94356 1.49461 4.36275 0.892852 2.72473 0.89209L2.22973 0.89209C1.63837 0.89209 1.07123 1.12701 0.653073 1.54516C0.234917 1.96332 0 2.53046 0 3.12182C0 3.71318 0.234917 4.28032 0.653073 4.69848C1.07123 5.11663 1.63837 5.35155 2.22973 5.35155H2.72473C3.27086 5.35162 3.79798 5.55213 4.2061 5.91504C4.61422 6.27795 4.87495 6.77802 4.93885 7.3204L8.00696 33.4082C8.32548 36.1213 9.62904 38.6231 11.6702 40.4386C13.7114 42.2541 16.3481 43.257 19.0798 43.257H42.3649C42.9562 43.257 43.5234 43.022 43.9415 42.6039C44.3597 42.1857 44.5946 41.6186 44.5946 41.0272C44.5946 40.4359 44.3597 39.8687 43.9415 39.4506C43.5234 39.0324 42.9562 38.7975 42.3649 38.7975H19.0798C17.6997 38.7936 16.3546 38.363 15.2289 37.5646C14.1032 36.7662 13.252 35.6392 12.792 34.338H39.3703C41.9842 34.3382 44.5151 33.4199 46.5207 31.7436C48.5263 30.0673 49.8791 27.7396 50.3428 25.1672L52.0932 15.4589C52.2679 14.4957 52.2286 13.5058 51.9782 12.5595C51.7277 11.6131 51.2722 10.7334 50.6438 9.9827ZM47.7162 14.6674L45.9636 24.3756C45.6852 25.9208 44.8721 27.3188 43.6667 28.3249C42.4613 29.331 40.9404 29.881 39.3703 29.8786H12.0829L9.98473 12.0407H45.5088C45.8363 12.0388 46.1603 12.109 46.4576 12.2464C46.7549 12.3839 47.0183 12.5851 47.2291 12.8359C47.4398 13.0866 47.5927 13.3807 47.6769 13.6973C47.7611 14.0138 47.7745 14.345 47.7162 14.6674Z" fill="white"/>
<path d="M15.6079 54.4063C18.0708 54.4063 20.0674 52.4097 20.0674 49.9468C20.0674 47.4839 18.0708 45.4873 15.6079 45.4873C13.145 45.4873 11.1484 47.4839 11.1484 49.9468C11.1484 52.4097 13.145 54.4063 15.6079 54.4063Z" fill="white"/>
<path d="M37.9053 54.4063C40.3681 54.4063 42.3647 52.4097 42.3647 49.9468C42.3647 47.4839 40.3681 45.4873 37.9053 45.4873C35.4424 45.4873 33.4458 47.4839 33.4458 49.9468C33.4458 52.4097 35.4424 54.4063 37.9053 54.4063Z" fill="white"/>
</g>
<defs>
<clipPath id="clip0_199_903">
<rect width="53.5135" height="53.5135" fill="white" transform="translate(0 0.89209)"/>
</clipPath>
</defs>
</svg>
