<svg width="44" height="41" viewBox="0 0 44 41" fill="none" xmlns="http://www.w3.org/2000/svg">
<path d="M43.1168 15.5091C42.9809 15.117 42.7336 14.7726 42.4051 14.5176C42.0765 14.2626 41.6807 14.1081 41.2657 14.0727L29.0187 12.2933L23.5302 1.20939C23.3539 0.84692 23.0787 0.541229 22.7361 0.327337C22.3935 0.113444 21.9974 0 21.593 0C21.1887 0 20.7925 0.113444 20.4499 0.327337C20.1073 0.541229 19.8322 0.84692 19.6559 1.20939L14.1674 12.2719L1.92034 14.0727C1.52198 14.1291 1.14747 14.2956 0.839309 14.5533C0.531145 14.811 0.301667 15.1496 0.176915 15.5306C0.0627211 15.9029 0.0524736 16.2992 0.147272 16.6769C0.242071 17.0546 0.438338 17.3995 0.715009 17.6745L9.60432 26.25L7.45194 38.4273C7.3751 38.8293 7.41534 39.2447 7.56789 39.6246C7.72045 40.0045 7.97896 40.3329 8.31289 40.5712C8.63837 40.803 9.02226 40.9398 9.42147 40.9663C9.82068 40.9928 10.2194 40.908 10.5729 40.7213L21.593 34.9971L32.5702 40.7427C32.8722 40.9125 33.2134 41.0011 33.5602 41C34.0162 41.0016 34.4608 40.859 34.8301 40.5927C35.1641 40.3544 35.4226 40.0259 35.5751 39.646C35.7277 39.2661 35.7679 38.8507 35.6911 38.4488L33.5387 26.2715L42.428 17.6959C42.7388 17.4337 42.9685 17.089 43.0904 16.7019C43.2123 16.3148 43.2215 15.9012 43.1168 15.5091ZM29.8797 24.0847C29.6273 24.3279 29.4384 24.6289 29.3296 24.9615C29.2208 25.2941 29.1954 25.6481 29.2555 25.9928L30.8052 34.9757L22.7123 30.6879C22.4009 30.5227 22.0535 30.4363 21.7007 30.4363C21.3479 30.4363 21.0005 30.5227 20.689 30.6879L12.5961 34.9757L14.1458 25.9928C14.206 25.6481 14.1805 25.2941 14.0717 24.9615C13.9629 24.6289 13.7741 24.3279 13.5216 24.0847L7.06452 17.653L16.126 16.3453C16.4747 16.2969 16.8062 16.1642 17.0914 15.9586C17.3765 15.753 17.6068 15.4809 17.7618 15.1661L21.593 6.99789L25.6395 15.1876C25.7946 15.5024 26.0248 15.7745 26.31 15.98C26.5952 16.1856 26.9266 16.3184 27.2753 16.3667L36.3368 17.6745L29.8797 24.0847Z" fill="#B8B7B7"/>
</svg>
