<svg width="42" height="41" viewBox="0 0 42 41" fill="none" xmlns="http://www.w3.org/2000/svg">
<path d="M40.484 1.99944C40.3994 1.68065 40.2312 1.38986 39.9965 1.15675C39.7618 0.923638 39.4691 0.756564 39.1482 0.672583C35.3044 -0.319105 31.2567 -0.212295 27.4714 0.980716C23.686 2.17373 20.3168 4.40443 17.7517 7.41596L15.6626 9.87993L10.7818 8.71017C9.59519 8.29927 8.299 8.32872 7.13257 8.79309C5.96615 9.25746 5.00827 10.1254 4.43584 11.2366L0.313195 18.4952C0.168742 18.7495 0.0865342 19.0339 0.0732143 19.3256C0.0598944 19.6172 0.115836 19.9079 0.236519 20.1741C0.357201 20.4403 0.539239 20.6745 0.767921 20.8579C0.996602 21.0413 1.26551 21.1687 1.55292 21.2298L7.31054 22.4557C6.82282 23.9305 6.47456 25.4472 6.27028 26.9862C6.23325 27.2689 6.26209 27.5563 6.35456 27.8262C6.44704 28.0961 6.60069 28.3413 6.80367 28.5429L12.6125 34.313C12.7865 34.4859 12.993 34.623 13.2203 34.7166C13.4476 34.8102 13.6912 34.8583 13.9373 34.8583C13.9913 34.8583 14.0453 34.8556 14.1002 34.851C15.6841 34.7096 17.2489 34.4039 18.7688 33.939L19.9749 39.5287C20.0365 39.8141 20.1649 40.0811 20.3495 40.3081C20.5342 40.5352 20.77 40.716 21.0379 40.8358C21.3059 40.9557 21.5985 41.0113 21.892 40.9981C22.1856 40.985 22.4719 40.9034 22.7279 40.7601L30.0455 36.6604C31.0754 36.0388 31.8799 35.1084 32.343 34.0032C32.806 32.898 32.9037 31.6753 32.6219 30.5115L31.3689 25.3763L33.6869 23.2591C36.7301 20.7183 38.9844 17.3715 40.1877 13.6079C41.391 9.84432 41.4937 5.81874 40.484 1.99944ZM4.82836 18.1199L7.74423 12.9833C7.92534 12.6346 8.2339 12.3679 8.60663 12.238C8.97937 12.108 9.38803 12.1247 9.74882 12.2844L12.9669 13.0591L11.7489 14.4956C10.5942 15.8702 9.59551 17.3671 8.77089 18.959L4.82836 18.1199ZM28.1947 33.4233L23.1058 36.2741L22.3011 32.543C23.9324 31.7349 25.4523 30.7216 26.8232 29.5281L28.2164 28.2556L28.9724 31.3539C29.0704 31.7364 29.0485 32.1396 28.9095 32.5095C28.7705 32.8793 28.5211 33.1981 28.1947 33.4233ZM31.2194 20.4592L24.3154 26.7618C21.5826 29.1093 18.2118 30.6015 14.6272 31.0504L10.1221 26.5755C10.7272 23.0056 12.2802 19.6607 14.6208 16.8859L17.7656 13.177C17.818 13.1226 17.8669 13.0649 17.912 13.0043L20.6008 9.83339C22.5888 7.50107 25.1643 5.73459 28.0644 4.71432C30.9645 3.69406 34.0852 3.45657 37.1079 4.02611C37.6951 7.038 37.4586 10.1512 36.4229 13.0414C35.3873 15.9317 33.5904 18.4932 31.2194 20.4592ZM29.4899 8.98698C28.934 8.98698 28.3906 9.15072 27.9284 9.45749C27.4662 9.76426 27.106 10.2003 26.8932 10.7104C26.6805 11.2206 26.6248 11.7819 26.7333 12.3235C26.8417 12.8651 27.1094 13.3625 27.5025 13.753C27.8956 14.1434 28.3964 14.4093 28.9416 14.517C29.4868 14.6248 30.0519 14.5695 30.5655 14.3582C31.0791 14.1469 31.5181 13.789 31.8269 13.3299C32.1357 12.8708 32.3006 12.331 32.3006 11.7788C32.3006 11.4122 32.2279 11.0491 32.0867 10.7104C31.9454 10.3716 31.7384 10.0639 31.4774 9.8046C31.2164 9.54534 30.9065 9.33969 30.5655 9.1994C30.2245 9.0591 29.859 8.98691 29.4899 8.98694L29.4899 8.98698Z" fill="#B8B7B7"/>
</svg>
