<svg width="35" height="34" viewBox="0 0 35 34" fill="none" xmlns="http://www.w3.org/2000/svg">
<path d="M8.13231 14.3564C9.39594 14.3564 10.6312 13.9826 11.6819 13.2823C12.7325 12.582 13.5514 11.5867 14.035 10.4221C14.5185 9.25752 14.6451 7.97607 14.3986 6.73977C14.152 5.50348 13.5435 4.36787 12.65 3.47655C11.7565 2.58523 10.6181 1.97823 9.37874 1.73232C8.1394 1.4864 6.85478 1.61261 5.68734 2.09499C4.51991 2.57737 3.52208 3.39425 2.82005 4.44233C2.11801 5.49041 1.74331 6.72262 1.74331 7.98314C1.74516 9.67287 2.41887 11.2929 3.61664 12.4877C4.81441 13.6825 6.43841 14.3546 8.13231 14.3564ZM8.13231 5.85871C8.55352 5.85871 8.96527 5.98331 9.31549 6.21674C9.66571 6.45018 9.93868 6.78197 10.0999 7.17016C10.2611 7.55834 10.3032 7.9855 10.2211 8.39759C10.1389 8.80969 9.93605 9.18823 9.63821 9.48534C9.34037 9.78244 8.9609 9.98477 8.54779 10.0667C8.13467 10.1487 7.70647 10.1066 7.31732 9.94585C6.92817 9.78506 6.59557 9.51277 6.36156 9.16341C6.12755 8.81405 6.00264 8.40331 6.00264 7.98314C6.00302 7.41982 6.22752 6.87968 6.62682 6.48136C7.02613 6.08303 7.5676 5.85909 8.13231 5.85871ZM26.2012 19.6343C24.9376 19.6343 23.7024 20.0081 22.6517 20.7084C21.601 21.4087 20.7821 22.4041 20.2986 23.5686C19.815 24.7332 19.6885 26.0147 19.935 27.251C20.1815 28.4872 20.79 29.6229 21.6835 30.5142C22.577 31.4055 23.7154 32.0125 24.9548 32.2584C26.1941 32.5043 27.4788 32.3781 28.6462 31.8957C29.8136 31.4134 30.8115 30.5965 31.5135 29.5484C32.2155 28.5003 32.5902 27.2681 32.5902 26.0076C32.5884 24.3179 31.9147 22.6979 30.7169 21.503C29.5191 20.3082 27.8951 19.6362 26.2012 19.6343ZM26.2012 28.132C25.78 28.132 25.3683 28.0074 25.018 27.774C24.6678 27.5405 24.3949 27.2088 24.2337 26.8206C24.0725 26.4324 24.0303 26.0052 24.1125 25.5931C24.1947 25.181 24.3975 24.8025 24.6953 24.5054C24.9932 24.2083 25.3726 24.006 25.7857 23.924C26.1989 23.842 26.6271 23.8841 27.0162 24.0449C27.4054 24.2057 27.738 24.478 27.972 24.8273C28.206 25.1767 28.3309 25.5874 28.3309 26.0076C28.3305 26.5709 28.106 27.111 27.7067 27.5094C27.3074 27.9077 26.7659 28.1316 26.2012 28.132ZM33.5801 0.622402C33.3824 0.425083 33.1477 0.268555 32.8893 0.161761C32.631 0.0549668 32.354 0 32.0744 0C31.7947 0 31.5178 0.0549668 31.2594 0.161761C31.0011 0.268555 30.7663 0.425083 30.5686 0.622402L0.753287 30.3644C0.553513 30.5612 0.394725 30.7954 0.286062 31.0537C0.177398 31.312 0.121005 31.5891 0.120128 31.8692C0.11925 32.1492 0.173906 32.4267 0.280949 32.6857C0.387991 32.9446 0.545308 33.1798 0.743846 33.3779C0.942384 33.5759 1.17822 33.7328 1.43779 33.8396C1.69736 33.9464 1.97553 34.0009 2.2563 34C2.53706 33.9991 2.81488 33.9428 3.07377 33.8344C3.33265 33.726 3.56749 33.5676 3.76477 33.3683L33.5801 3.62634C33.7779 3.42913 33.9348 3.19498 34.0419 2.93727C34.1489 2.67956 34.204 2.40333 34.204 2.12437C34.204 1.84541 34.1489 1.56919 34.0419 1.31147C33.9348 1.05376 33.7779 0.819611 33.5801 0.622402Z" fill="#B8B7B7"/>
</svg>
