<svg width="29" height="29" viewBox="0 0 29 29" fill="none" xmlns="http://www.w3.org/2000/svg">
<path d="M14.1319 0C11.3369 0 8.60463 0.828822 6.28065 2.38166C3.95667 3.93449 2.14534 6.14159 1.07573 8.72386C0.00612319 11.3061 -0.273736 14.1476 0.271547 16.8889C0.81683 19.6302 2.16276 22.1483 4.13915 24.1247C6.11553 26.1011 8.6336 27.447 11.3749 27.9923C14.1162 28.5376 16.9577 28.2577 19.54 27.1881C22.1222 26.1185 24.3293 24.3072 25.8822 21.9832C27.435 19.6592 28.2638 16.9269 28.2638 14.1319C28.2638 10.3839 26.7749 6.78939 24.1247 4.13914C21.4744 1.48889 17.8799 0 14.1319 0ZM14.1319 25.6944C11.8451 25.6944 9.60959 25.0163 7.70815 23.7458C5.80671 22.4753 4.32472 20.6694 3.44959 18.5567C2.57445 16.4439 2.34547 14.1191 2.79161 11.8762C3.23776 9.63329 4.33897 7.57305 5.95601 5.95601C7.57306 4.33897 9.63329 3.23775 11.8762 2.79161C14.1191 2.34547 16.4439 2.57444 18.5567 3.44958C20.6695 4.32472 22.4753 5.80671 23.7458 7.70815C25.0163 9.60959 25.6944 11.8451 25.6944 14.1319C25.6944 17.1985 24.4762 20.1394 22.3078 22.3078C20.1394 24.4762 17.1985 25.6944 14.1319 25.6944ZM16.7014 7.70832V6.4236C16.7014 6.08287 16.566 5.75609 16.3251 5.51516C16.0841 5.27423 15.7574 5.13888 15.4166 5.13888C15.0759 5.13888 14.7491 5.27423 14.5082 5.51516C14.2673 5.75609 14.1319 6.08287 14.1319 6.4236V7.70832H12.8472V6.4236C12.8472 6.08287 12.7118 5.75609 12.4709 5.51516C12.23 5.27423 11.9032 5.13888 11.5625 5.13888C11.2218 5.13888 10.895 5.27423 10.654 5.51516C10.4131 5.75609 10.2778 6.08287 10.2778 6.4236V7.70832H8.99304C8.65231 7.70832 8.32554 7.84367 8.08461 8.0846C7.84368 8.32553 7.70832 8.65231 7.70832 8.99304C7.70832 9.33376 7.84368 9.66054 8.08461 9.90147C8.32554 10.1424 8.65231 10.2778 8.99304 10.2778H10.2778V17.9861H8.99304C8.65231 17.9861 8.32554 18.1214 8.08461 18.3624C7.84368 18.6033 7.70832 18.9301 7.70832 19.2708C7.70832 19.6115 7.84368 19.9383 8.08461 20.1792C8.32554 20.4202 8.65231 20.5555 8.99304 20.5555H10.2778V21.8402C10.2778 22.181 10.4131 22.5077 10.654 22.7487C10.895 22.9896 11.2218 23.1249 11.5625 23.1249C11.9032 23.1249 12.23 22.9896 12.4709 22.7487C12.7118 22.5077 12.8472 22.181 12.8472 21.8402V20.5555H14.1319V21.8402C14.1319 22.181 14.2673 22.5077 14.5082 22.7487C14.7491 22.9896 15.0759 23.1249 15.4166 23.1249C15.7574 23.1249 16.0841 22.9896 16.3251 22.7487C16.566 22.5077 16.7014 22.181 16.7014 21.8402V20.5555C17.7235 20.5555 18.7039 20.1494 19.4267 19.4267C20.1495 18.7039 20.5555 17.7235 20.5555 16.7014C20.5534 15.7523 20.2011 14.8374 19.5663 14.1319C20.2011 13.4264 20.5534 12.5115 20.5555 11.5625C20.5555 10.5403 20.1495 9.55997 19.4267 8.83717C18.7039 8.11438 17.7235 7.70832 16.7014 7.70832ZM16.7014 17.9861H12.8472V15.4166H16.7014C17.0421 15.4166 17.3689 15.552 17.6098 15.7929C17.8507 16.0338 17.9861 16.3606 17.9861 16.7014C17.9861 17.0421 17.8507 17.3689 17.6098 17.6098C17.3689 17.8507 17.0421 17.9861 16.7014 17.9861ZM16.7014 12.8472H12.8472V10.2778H16.7014C17.0421 10.2778 17.3689 10.4131 17.6098 10.654C17.8507 10.895 17.9861 11.2217 17.9861 11.5625C17.9861 11.9032 17.8507 12.23 17.6098 12.4709C17.3689 12.7118 17.0421 12.8472 16.7014 12.8472Z" fill="#6F5CEA"/>
</svg>
