<svg width="17" height="17" viewBox="0 0 17 17" fill="none" xmlns="http://www.w3.org/2000/svg">
<path fill-rule="evenodd" clip-rule="evenodd" d="M10.4905 7.61648H12.6756C13.007 7.61648 13.2673 7.34256 13.2673 7.01223C13.2673 6.67385 13.007 6.40798 12.6756 6.40798H10.4905C10.1592 6.40798 9.89885 6.67385 9.89885 7.01223C9.89885 7.34256 10.1592 7.61648 10.4905 7.61648ZM15.2708 3.4278C15.752 3.4278 16.0676 3.59699 16.3831 3.9676C16.6987 4.3382 16.7539 4.86994 16.6829 5.35253L15.9335 10.6377C15.7915 11.6536 14.9395 12.4021 13.9377 12.4021H5.3312C4.28202 12.4021 3.41428 11.5811 3.3275 10.5177L2.60175 1.7351L1.41058 1.52563C1.09503 1.46923 0.874152 1.15502 0.929372 0.832754C0.984593 0.503237 1.29225 0.284902 1.61568 0.334047L3.49711 0.623281C3.76532 0.672426 3.96253 0.897207 3.9862 1.17113L4.13608 2.97582C4.15975 3.23444 4.36485 3.4278 4.61729 3.4278H15.2708ZM5.20492 13.6754C4.54228 13.6754 4.00586 14.2233 4.00586 14.9C4.00586 15.5687 4.54228 16.1166 5.20492 16.1166C5.85968 16.1166 6.3961 15.5687 6.3961 14.9C6.3961 14.2233 5.85968 13.6754 5.20492 13.6754ZM14.0795 13.6755C13.4168 13.6755 12.8804 14.2233 12.8804 14.9001C12.8804 15.5688 13.4168 16.1166 14.0795 16.1166C14.7342 16.1166 15.2706 15.5688 15.2706 14.9001C15.2706 14.2233 14.7342 13.6755 14.0795 13.6755Z" fill="white"/>
</svg>
