<svg width="26" height="26" viewBox="0 0 26 26" fill="none" xmlns="http://www.w3.org/2000/svg">
<path d="M24.4376 10.1499C24.0846 9.72612 23.6429 9.38499 23.1436 9.15057C22.6444 8.91616 22.0997 8.79417 21.5482 8.79323H15.8195L16.523 6.99691C16.8157 6.2104 16.9131 5.36465 16.807 4.53221C16.701 3.69977 16.3945 2.90548 15.914 2.21748C15.4334 1.52948 14.7932 0.968305 14.0481 0.582093C13.303 0.19588 12.4754 -0.00384315 11.6361 5.60141e-05C11.3945 0.000560192 11.1581 0.0707471 10.9553 0.202202C10.7525 0.333657 10.592 0.5208 10.4929 0.741195L6.9125 8.79323H3.96024C2.96069 8.79323 2.00207 9.19027 1.29527 9.897C0.588479 10.6037 0.191406 11.5623 0.191406 12.5617V21.3549C0.191406 22.3544 0.588479 23.3129 1.29527 24.0196C2.00207 24.7264 2.96069 25.1234 3.96024 25.1234H19.9527C20.8344 25.1231 21.688 24.8137 22.3651 24.2491C23.0423 23.6845 23.5 22.9004 23.6587 22.0332L25.2542 13.2401C25.3529 12.6966 25.3309 12.1381 25.1898 11.6041C25.0486 11.0701 24.7919 10.5737 24.4376 10.1499ZM6.4728 22.6111H3.96024C3.62706 22.6111 3.30752 22.4787 3.07192 22.2431C2.83632 22.0076 2.70397 21.6881 2.70397 21.3549V12.5617C2.70397 12.2286 2.83632 11.9091 3.07192 11.6735C3.30752 11.4379 3.62706 11.3056 3.96024 11.3056H6.4728V22.6111ZM22.8044 12.7878L21.209 21.581C21.1554 21.8736 20.9998 22.1378 20.7698 22.3264C20.5397 22.5151 20.2502 22.6159 19.9527 22.6111H8.98536V10.3132L12.4024 2.62545C12.7542 2.72798 13.0808 2.90231 13.3618 3.13744C13.6428 3.37256 13.8719 3.66338 14.0348 3.99152C14.1978 4.31966 14.2909 4.67801 14.3083 5.04395C14.3257 5.40988 14.2671 5.77545 14.1361 6.11759L13.4703 7.91391C13.3284 8.29359 13.2805 8.70196 13.3307 9.10417C13.3808 9.50637 13.5276 9.89047 13.7584 10.2237C13.9892 10.5569 14.2972 10.8293 14.6561 11.0177C15.015 11.2061 15.4142 11.3049 15.8195 11.3056H21.5482C21.7327 11.3053 21.9151 11.3456 22.0823 11.4238C22.2495 11.5019 22.3974 11.616 22.5155 11.7578C22.6365 11.8976 22.7252 12.0625 22.7751 12.2405C22.8251 12.4186 22.8351 12.6055 22.8044 12.7878Z" fill="#6F5CEA"/>
</svg>
