<svg width="17" height="20" viewBox="0 0 17 20" fill="none" xmlns="http://www.w3.org/2000/svg">
<path fill-rule="evenodd" clip-rule="evenodd" d="M0 8.31776C0 3.71789 3.84388 0 8.49345 0C13.1561 0 17 3.71789 17 8.31776C17 10.6357 16.157 12.7876 14.7695 14.6116C13.2388 16.6235 11.3522 18.3765 9.22854 19.7524C8.74251 20.0704 8.30387 20.0944 7.77045 19.7524C5.63474 18.3765 3.74809 16.6235 2.2305 14.6116C0.841983 12.7876 0 10.6357 0 8.31776ZM5.69531 8.57726C5.69531 10.1182 6.95274 11.3302 8.49453 11.3302C10.0373 11.3302 11.3069 10.1182 11.3069 8.57726C11.3069 7.04831 10.0373 5.77734 8.49453 5.77734C6.95274 5.77734 5.69531 7.04831 5.69531 8.57726Z" fill="#303239"/>
</svg>
