<svg width="194" height="28" viewBox="0 0 194 28" fill="none" xmlns="http://www.w3.org/2000/svg">
<path d="M21.183 16.4092C21.0833 13.5441 20.9837 10.2557 20.9837 6.73946H20.8841C20.0541 9.70225 18.9916 12.9906 18.0288 15.8883L15.0074 24.7441H10.7575L8.13452 15.9534C7.30447 13.0883 6.50762 9.83248 5.87678 6.73946H5.81037C5.67756 9.93016 5.57796 13.5441 5.41195 16.4743L5.01352 25.0697H0L1.39449 3.02783H8.89817L11.2223 10.1906C11.9528 12.6325 12.6832 15.4976 13.2476 18.1348H13.3805C14.0777 15.5627 14.941 12.5023 15.771 10.1581L18.3608 3.02783H25.6984L26.7941 25.0697H21.515L21.183 16.4092Z" fill="#303239"/>
<path d="M36.2899 3.02783V25.0697H30.9775V3.02783H36.2899Z" fill="#303239"/>
<path d="M40.9048 25.0697V3.02783H47.4788L52.5587 10.9395C54.1192 13.4464 55.5137 16.1813 56.6426 18.8836H56.7422C56.377 15.7581 56.3438 13.0883 56.3438 9.99528V3.02783H61.2909V25.0697H55.5137L50.2346 16.5395C48.7073 13.9999 47.0804 11.1348 45.7855 8.36737H45.6527C45.8187 11.5255 45.8519 14.5534 45.8519 17.8743V25.0697H40.9048Z" fill="#303239"/>
<path d="M85.2632 3.32089C86.9897 3.06043 89.6459 2.83252 92.6673 2.83252C96.3195 2.83252 98.71 3.38601 100.37 4.62322C101.698 5.59996 102.561 7.19531 102.561 9.24647C102.561 12.1767 100.237 14.0651 98.4112 14.6511V14.7814C99.9717 15.4 100.901 16.8976 101.499 18.786C102.296 21.293 102.993 24.2232 103.425 25.1023H98.0128C97.6476 24.4511 97.0499 22.8232 96.3195 20.0232C95.6222 17.2558 94.593 16.5395 92.2688 16.5069H90.4759V25.0697H85.1968V3.32089H85.2632ZM90.5091 12.7628H92.8997C95.6222 12.7628 97.2824 11.5907 97.2824 9.66973C97.2824 7.61857 95.6554 6.67438 93.1985 6.67438C91.7044 6.67438 90.9075 6.77206 90.5091 6.86973V12.7628Z" fill="#303239"/>
<path d="M140.644 19.2092L138.851 25.0697H133.24L140.777 3.02783H147.916L155.818 25.0697H149.941L147.949 19.2092H140.644ZM147.052 15.3674L145.425 10.6464C144.994 9.34411 144.562 7.87899 144.164 6.64179H144.097C143.732 7.87899 143.4 9.34411 143.002 10.6464L141.474 15.3348H147.052V15.3674Z" fill="#6F5CEA"/>
<path d="M159.37 19.665C160.864 20.4464 163.155 21.2277 165.645 21.2277C168.069 21.2277 169.364 20.3161 169.364 18.851C169.364 17.5812 168.268 16.7673 165.313 15.9208C161.329 14.8138 158.44 12.8929 158.44 9.27891C158.44 5.43705 161.927 2.60449 167.405 2.60449C170.327 2.60449 172.319 3.12542 173.879 3.80914L172.618 7.91147C171.655 7.48821 169.796 6.77193 167.305 6.77193C164.981 6.77193 163.852 7.74868 163.852 8.85565C163.852 10.2882 165.28 10.8743 168.368 11.851C172.684 13.2184 174.776 15.1719 174.776 18.558C174.776 22.1068 171.954 25.4603 165.147 25.4603C162.358 25.4603 159.536 24.7115 158.108 23.9301L159.37 19.665Z" fill="#6F5CEA"/>
<path fill-rule="evenodd" clip-rule="evenodd" d="M131.115 15.3349C130.385 14.3907 129.289 13.707 127.895 13.3163C128.891 12.893 129.654 12.2419 130.252 11.3302C130.816 10.4512 131.115 9.47442 131.115 8.43256C131.115 7.45581 130.883 6.57674 130.418 5.79535C129.953 5.01395 129.355 4.39535 128.658 3.93954C127.961 3.48372 127.164 3.15814 126.268 3.02791C126.068 2.99535 125.803 2.96279 125.57 2.93023V0H122.283V2.8H119.594V0H116.307V2.8H113.086V25.2H116.307V28H119.594V25.2H120.889H122.283V28H125.57V25.1023C125.936 25.0698 126.234 25.0698 126.434 25.0372C127.662 24.907 128.691 24.5488 129.521 23.9628C130.352 23.3767 131.016 22.6279 131.514 21.6512C132.012 20.6744 132.244 19.6977 132.244 18.6884C132.244 17.4186 131.879 16.2791 131.115 15.3349ZM117.735 6.54419H120.391C122.549 6.54419 123.877 6.57674 124.342 6.6093C125.106 6.70698 125.703 6.96744 126.102 7.3907C126.5 7.81395 126.666 8.36744 126.666 9.08372C126.666 9.8 126.434 10.386 125.969 10.8419C125.504 11.2977 124.906 11.5581 124.11 11.6558C123.678 11.7209 122.549 11.7209 120.756 11.7209H117.735V6.54419ZM126.832 20.414C126.4 20.8698 125.836 21.1954 125.139 21.293C124.707 21.3907 123.645 21.4233 121.985 21.4233H117.702V15.4326H121.42C123.512 15.4326 124.873 15.5302 125.504 15.7581C126.135 15.986 126.6 16.3116 126.932 16.8C127.264 17.2884 127.43 17.8419 127.43 18.5256C127.496 19.307 127.264 19.9256 126.832 20.414Z" fill="#6F5CEA"/>
<path d="M65.4746 25.1024V3.06055H80.6812V7.26055H71.0858V11.135H79.9175V15.335H71.0858V20.9024H80.6812V25.1024H65.4746Z" fill="#303239"/>
<path d="M178.793 25.1024V3.06055H194V7.26055H184.405V11.135H193.236V15.335H184.405V20.9024H194V25.1024H178.793Z" fill="#6F5CEA"/>
</svg>
