<svg width="81" height="12" viewBox="0 0 81 12" fill="none" xmlns="http://www.w3.org/2000/svg">
<path d="M8.84443 7.03274C8.80284 5.80483 8.76125 4.39553 8.76125 2.88855H8.71967C8.3731 4.15832 7.92949 5.56762 7.52747 6.80948L6.26596 10.6048H4.49153L3.39637 6.83739C3.0498 5.60948 2.7171 4.21413 2.45371 2.88855H2.42598C2.37053 4.25599 2.32894 5.80483 2.25963 7.06064L2.09327 10.7444H0L0.582235 1.29785H3.71521L4.68561 4.36762C4.99059 5.41413 5.29557 6.64204 5.53123 7.77227H5.58669C5.8778 6.66995 6.23823 5.35832 6.5848 4.35367L7.6661 1.29785H10.7298L11.1872 10.7444H8.98306L8.84443 7.03274Z" fill="white"/>
<path d="M15.1521 1.29785V10.7444H12.9341V1.29785H15.1521Z" fill="white"/>
<path d="M17.0786 10.7444V1.29785H19.8234L21.9444 4.68855C22.596 5.76297 23.1782 6.93506 23.6496 8.0932H23.6911C23.5386 6.75367 23.5248 5.60948 23.5248 4.2839V1.29785H25.5903V10.7444H23.1782L20.974 7.08855C20.3364 6.00018 19.6571 4.77227 19.1164 3.58622H19.061C19.1303 4.93971 19.1442 6.23739 19.1442 7.66064V10.7444H17.0786Z" fill="white"/>
<path d="M35.5995 1.42317C36.3204 1.31154 37.4294 1.21387 38.6909 1.21387C40.2158 1.21387 41.2139 1.45108 41.907 1.98131C42.4616 2.39991 42.822 3.08364 42.822 3.96271C42.822 5.21852 41.8516 6.02782 41.0891 6.27898V6.3348C41.7407 6.59992 42.1289 7.24178 42.3784 8.05108C42.7111 9.1255 43.0022 10.3813 43.1824 10.7581H40.9228C40.7703 10.479 40.5208 9.78131 40.2158 8.58131C39.9247 7.39526 39.4949 7.08829 38.5245 7.07433H37.776V10.7441H35.5718V1.42317H35.5995ZM37.7898 5.46968H38.7879C39.9247 5.46968 40.6178 4.96736 40.6178 4.1441C40.6178 3.26503 39.9385 2.86038 38.9127 2.86038C38.2889 2.86038 37.9562 2.90224 37.7898 2.9441V5.46968Z" fill="white"/>
<path d="M58.7227 8.23274L57.9742 10.7444H55.6313L58.7782 1.29785H61.7587L65.058 10.7444H62.6043L61.7725 8.23274H58.7227ZM61.3982 6.58622L60.719 4.56297C60.5388 4.00483 60.3585 3.37692 60.1922 2.84669H60.1645C60.012 3.37692 59.8733 4.00483 59.707 4.56297L59.0693 6.57227H61.3982V6.58622Z" fill="#6F5CEA"/>
<path d="M66.5409 8.42784C67.1648 8.76272 68.1213 9.09761 69.161 9.09761C70.173 9.09761 70.7136 8.70691 70.7136 8.079C70.7136 7.53482 70.2561 7.18598 69.0224 6.82319C67.3588 6.34877 66.1528 5.52551 66.1528 3.97668C66.1528 2.33016 67.6084 1.11621 69.8957 1.11621C71.1156 1.11621 71.9474 1.33947 72.5989 1.63249L72.0722 3.39063C71.6701 3.20923 70.8938 2.90226 69.8541 2.90226C68.8837 2.90226 68.4124 3.32086 68.4124 3.79528C68.4124 4.40923 69.0085 4.6604 70.2977 5.079C72.0999 5.66505 72.9732 6.50226 72.9732 7.95342C72.9732 9.47435 71.7949 10.9116 68.9531 10.9116C67.7886 10.9116 66.6103 10.5906 66.0142 10.2557L66.5409 8.42784Z" fill="#6F5CEA"/>
<path fill-rule="evenodd" clip-rule="evenodd" d="M54.7438 6.57209C54.4388 6.16744 53.9813 5.87442 53.3991 5.70698C53.815 5.52558 54.1338 5.24651 54.3833 4.85581C54.619 4.47907 54.7438 4.06047 54.7438 3.61395C54.7438 3.19535 54.6467 2.8186 54.4527 2.48372C54.2586 2.14884 54.009 1.88372 53.7179 1.68837C53.4268 1.49302 53.0941 1.35349 52.7198 1.29767C52.6366 1.28372 52.5257 1.26977 52.4287 1.25581V0H51.0563V1.2H49.9334V0H48.561V1.2H47.2163V10.8H48.561V12H49.9334V10.8H50.4741H51.0563V12H52.4287V10.7581C52.5812 10.7442 52.706 10.7442 52.7891 10.7302C53.302 10.6744 53.7318 10.5209 54.0784 10.2698C54.4249 10.0186 54.7022 9.69767 54.9101 9.27907C55.1181 8.86047 55.2151 8.44186 55.2151 8.0093C55.2151 7.46512 55.0626 6.97674 54.7438 6.57209ZM49.1571 2.80465H50.2661C51.1672 2.80465 51.7217 2.8186 51.9158 2.83256C52.2346 2.87442 52.4841 2.98605 52.6505 3.16744C52.8169 3.34884 52.8862 3.58605 52.8862 3.89302C52.8862 4.2 52.7891 4.45116 52.595 4.64651C52.401 4.84186 52.1514 4.95349 51.8187 4.99535C51.6385 5.02326 51.1672 5.02326 50.4186 5.02326H49.1571V2.80465ZM52.9555 8.74884C52.7753 8.94419 52.5396 9.08372 52.2485 9.12558C52.0683 9.16744 51.6247 9.1814 50.9315 9.1814H49.1432V6.61395H50.6959C51.5692 6.61395 52.1376 6.65581 52.401 6.75349C52.6644 6.85116 52.8584 6.9907 52.9971 7.2C53.1357 7.4093 53.205 7.64651 53.205 7.93954C53.2327 8.27442 53.1357 8.53954 52.9555 8.74884Z" fill="#6F5CEA"/>
<path d="M27.3374 10.758V1.31152H33.6865V3.11152H29.6802V4.77199H33.3677V6.57199H29.6802V8.95803H33.6865V10.758H27.3374Z" fill="white"/>
<path d="M74.6509 10.758V1.31152H81V3.11152H76.9937V4.77199H80.6812V6.57199H76.9937V8.95803H81V10.758H74.6509Z" fill="#6F5CEA"/>
</svg>
