<svg width="19" height="18" viewBox="0 0 19 18" fill="none" xmlns="http://www.w3.org/2000/svg">
<path fill-rule="evenodd" clip-rule="evenodd" d="M14.192 0C15.466 0 16.6915 0.5035 17.593 1.40695C18.4955 2.3085 19 3.5245 19 4.7975V12.3025C19 14.953 16.8435 17.1 14.192 17.1H4.807C2.15555 17.1 0 14.953 0 12.3025V4.7975C0 2.147 2.14605 0 4.807 0H14.192ZM15.7036 6.2129L15.7796 6.1369C16.0067 5.8614 16.0067 5.4624 15.7692 5.1869C15.6371 5.04535 15.4557 4.9589 15.2666 4.9399C15.0671 4.92945 14.8771 4.9969 14.7337 5.1299L10.4501 8.5499C9.89913 9.00685 9.10968 9.00685 8.55013 8.5499L4.27513 5.1299C3.97968 4.9114 3.57118 4.9399 3.32513 5.1964C3.06863 5.4529 3.04013 5.8614 3.25768 6.1464L3.38213 6.2699L7.70463 9.6424C8.23663 10.0604 8.88168 10.2884 9.55713 10.2884C10.2307 10.2884 10.8871 10.0604 11.4182 9.6424L15.7036 6.2129Z" fill="#BFC5F9"/>
</svg>
