<svg width="19" height="19" viewBox="0 0 19 19" fill="none" xmlns="http://www.w3.org/2000/svg">
<path d="M15.3585 11.7602C14.7204 11.623 14.2156 11.9192 13.7686 12.178C13.3108 12.4446 12.4404 13.1507 11.9415 12.97C9.38703 11.9183 6.98452 9.68243 5.94452 7.11776C5.76122 6.60818 6.46403 5.73222 6.72869 5.26905C6.9855 4.82071 7.27565 4.31113 7.14332 3.66823C7.02373 3.09051 5.47696 1.12232 4.93 0.584101C4.56928 0.228582 4.19974 0.0330463 3.8204 0.00144462C2.39419 -0.0597837 0.801341 1.84323 0.52198 2.29849C-0.177892 3.26926 -0.173971 4.56098 0.533742 6.12724C2.23931 10.3342 8.6901 16.6832 12.9129 18.4529C13.6921 18.8173 14.4047 19 15.0448 19C15.6712 19 16.2289 18.8252 16.7082 18.4786C17.0699 18.2702 19.0509 16.5983 18.999 15.1337C18.9676 14.7604 18.7726 14.3871 18.4217 14.0257C17.8874 13.4737 15.9319 11.8807 15.3585 11.7602" fill="#BFC5F9"/>
</svg>
