<svg width="21" height="21" viewBox="0 0 21 21" fill="none" xmlns="http://www.w3.org/2000/svg">
<g clip-path="url(#clip0_106_14)">
<path d="M20.7716 19.5344L15.5488 14.3115C16.9721 12.5708 17.6718 10.3496 17.5034 8.10738C17.3349 5.86516 16.3111 3.77347 14.6436 2.26496C12.9762 0.756454 10.7928 -0.0534618 8.54495 0.00274102C6.29711 0.0589439 4.15687 0.976966 2.56692 2.56692C0.976966 4.15687 0.0589439 6.29711 0.00274102 8.54495C-0.0534618 10.7928 0.756454 12.9762 2.26496 14.6436C3.77347 16.3111 5.86516 17.3349 8.10738 17.5034C10.3496 17.6718 12.5708 16.9721 14.3115 15.5488L19.5344 20.7716C19.6994 20.931 19.9204 21.0192 20.1499 21.0172C20.3793 21.0152 20.5987 20.9232 20.761 20.761C20.9232 20.5987 21.0152 20.3793 21.0172 20.1499C21.0192 19.9204 20.931 19.6994 20.7716 19.5344ZM8.77801 15.778C7.39354 15.778 6.04016 15.3675 4.88902 14.5983C3.73787 13.8291 2.84066 12.7359 2.31085 11.4568C1.78104 10.1777 1.64241 8.77024 1.91251 7.41238C2.18261 6.05451 2.84929 4.80723 3.82826 3.82826C4.80723 2.84929 6.05451 2.18261 7.41238 1.91251C8.77024 1.64241 10.1777 1.78104 11.4568 2.31085C12.7359 2.84066 13.8291 3.73787 14.5983 4.88902C15.3675 6.04016 15.778 7.39354 15.778 8.77801C15.7759 10.6339 15.0378 12.4132 13.7255 13.7255C12.4132 15.0378 10.6339 15.7759 8.77801 15.778Z" fill="black"/>
</g>
<defs>
<clipPath id="clip0_106_14">
<rect width="21" height="21" fill="white"/>
</clipPath>
</defs>
</svg>
