<svg width="16" height="16" viewBox="0 0 16 16" fill="none" xmlns="http://www.w3.org/2000/svg">
<path fill-rule="evenodd" clip-rule="evenodd" d="M0 6.84468C0 3.06447 3.03185 0 6.77182 0C8.56782 0 10.2903 0.721134 11.5602 2.00476C12.8302 3.28839 13.5436 5.02936 13.5436 6.84468C13.5436 10.6249 10.5118 13.6894 6.77182 13.6894C3.03185 13.6894 0 10.6249 0 6.84468ZM13.4316 12.3586L15.4484 13.9866H15.4834C15.8915 14.399 15.8915 15.0677 15.4834 15.4801C15.0754 15.8926 14.4139 15.8926 14.0058 15.4801L12.3321 13.5619C12.1739 13.4026 12.085 13.1861 12.085 12.9603C12.085 12.7345 12.1739 12.518 12.3321 12.3586C12.6373 12.0555 13.1264 12.0555 13.4316 12.3586Z" fill="white"/>
</svg>
