<svg width="31" height="27" viewBox="0 0 31 27" fill="none" xmlns="http://www.w3.org/2000/svg">
<path d="M0.538429 12.9882L7.59786 15.5029L10.3498 23.9614C10.4695 24.5329 11.1874 24.6472 11.666 24.3043L15.6145 21.2181C15.9734 20.8752 16.5717 20.8752 17.0503 21.2181L24.1097 26.1332C24.5883 26.4761 25.3062 26.2475 25.4258 25.676L30.6905 1.6721C30.8101 1.10058 30.2119 0.52906 29.6136 0.757668L0.538429 11.5023C-0.179476 11.7309 -0.179476 12.7596 0.538429 12.9882ZM9.99088 14.2455L23.8704 6.12996C24.1097 6.01565 24.349 6.35857 24.1097 6.47287L12.7428 16.6459C12.3839 16.9889 12.0249 17.4461 12.0249 18.0176L11.666 20.7609C11.666 21.1038 11.0677 21.2181 10.9481 20.7609L9.51225 15.7315C9.1533 15.16 9.39263 14.4742 9.99088 14.2455Z" fill="#BFC5F9"/>
</svg>
