<svg width="29" height="29" viewBox="0 0 29 29" fill="none" xmlns="http://www.w3.org/2000/svg">
<path d="M14.46 0C11.665 0 8.93275 0.828822 6.60877 2.38166C4.28479 3.93449 2.47347 6.14159 1.40386 8.72386C0.334248 11.3061 0.0543891 14.1476 0.599672 16.8889C1.14496 19.6302 2.49089 22.1483 4.46727 24.1247C6.44366 26.1011 8.96172 27.447 11.703 27.9923C14.4444 28.5376 17.2858 28.2577 19.8681 27.1881C22.4504 26.1185 24.6575 24.3072 26.2103 21.9832C27.7631 19.6592 28.592 16.9269 28.592 14.1319C28.592 12.2761 28.2264 10.4384 27.5162 8.72386C26.806 7.0093 25.7651 5.45141 24.4528 4.13914C23.1405 2.82687 21.5827 1.78592 19.8681 1.07573C18.1535 0.365533 16.3159 0 14.46 0ZM14.46 25.4374C12.224 25.4374 10.0382 24.7744 8.17903 23.5321C6.31984 22.2898 4.87079 20.5242 4.0151 18.4583C3.15941 16.3925 2.93552 14.1194 3.37175 11.9263C3.80797 9.73325 4.88472 7.7188 6.46583 6.13769C8.04693 4.55659 10.0614 3.47984 12.2544 3.04362C14.4475 2.60739 16.7207 2.83128 18.7865 3.68696C20.8523 4.54265 22.618 5.99171 23.8602 7.8509C25.1025 9.71008 25.7656 11.8959 25.7656 14.1319C25.7656 17.1303 24.5745 20.0059 22.4543 22.1261C20.3341 24.2463 17.4585 25.4374 14.46 25.4374ZM17.4277 10.7826L15.8732 11.6871V7.06596C15.8732 6.69115 15.7243 6.3317 15.4593 6.06668C15.1943 5.80165 14.8348 5.65276 14.46 5.65276C14.0852 5.65276 13.7258 5.80165 13.4608 6.06668C13.1957 6.3317 13.0469 6.69115 13.0469 7.06596V14.1319C13.0469 14.1319 13.0469 14.1319 13.0469 14.2167C13.0402 14.3108 13.0402 14.4052 13.0469 14.4993C13.0687 14.5861 13.0971 14.6712 13.1316 14.7537C13.1316 14.7537 13.1316 14.7537 13.1316 14.8385C13.1991 14.9388 13.2748 15.0333 13.3578 15.1211C13.4719 15.2343 13.6061 15.3254 13.7534 15.3897H13.8665C14.0506 15.4843 14.2532 15.5374 14.46 15.5451C14.6247 15.5404 14.7874 15.5069 14.9405 15.4462H15.0677H15.1666L18.8409 13.3264C19.167 13.139 19.4053 12.8297 19.5033 12.4666C19.6014 12.1036 19.5512 11.7164 19.3638 11.3903C19.1764 11.0642 18.8672 10.826 18.5041 10.7279C18.141 10.6298 17.7538 10.68 17.4277 10.8674V10.7826Z" fill="#6F5CEA"/>
</svg>
