<svg width="28" height="29" viewBox="0 0 28 29" fill="none" xmlns="http://www.w3.org/2000/svg">
<path d="M21.1256 0.688326C16.1716 -0.229442 11.0272 -0.229442 6.0733 0.688326C3.88215 1.14721 1.11939 3.71696 0.643055 5.73605C-0.214352 9.68245 -0.214352 13.7206 0.643055 17.667C1.21466 19.6861 3.97741 22.2559 6.0733 22.7148C6.16856 22.7148 6.26383 22.8065 6.26383 22.8983V28.6802C6.26383 28.9556 6.6449 29.1391 6.83544 28.8638L9.69346 26.0187C9.69346 26.0187 11.9799 23.7243 12.3609 23.3572C12.3609 23.3572 12.4562 23.2654 12.5515 23.2654C15.4095 23.3572 18.3628 23.0819 21.2208 22.623C23.412 22.1641 26.1747 19.5943 26.6511 17.5753C27.5085 13.6289 27.5085 9.59068 26.6511 5.64427C26.0795 3.71696 23.3167 1.14721 21.1256 0.688326ZM21.2208 17.9424C20.7445 18.8601 20.1729 19.5943 19.2202 20.0532C18.9344 20.145 18.6486 20.2368 18.3628 20.3286C17.9817 20.2368 17.6959 20.145 17.4101 20.0532C14.3616 18.8601 11.5035 17.2081 9.21712 14.822C7.97865 13.4453 6.9307 11.8851 6.0733 10.2331C5.69223 9.40712 5.31116 8.67291 5.02536 7.84692C4.73955 7.1127 5.21589 6.37849 5.69223 5.82783C6.16856 5.27717 6.74017 4.91006 7.40704 4.63473C7.88338 4.3594 8.35972 4.54295 8.74079 4.91006C9.50293 5.82783 10.2651 6.74559 10.8367 7.75514C11.2177 8.39758 11.1225 9.13179 10.4556 9.59067C10.2651 9.68245 10.1698 9.77423 9.97926 9.95778C9.88399 10.0496 9.69346 10.1413 9.59819 10.3249C9.40765 10.6002 9.40766 10.8756 9.50292 11.1509C10.2651 13.2617 11.6941 14.9137 13.8852 15.8315C14.2663 16.015 14.5521 16.1068 15.0284 16.1068C15.6953 16.0151 15.9811 15.2808 16.4574 14.9137C16.9338 14.5466 17.5054 14.5466 18.077 14.822C18.5533 15.0973 19.0297 15.4644 19.6013 15.8315C20.0776 16.1986 20.5539 16.4739 21.0303 16.841C21.3161 17.0246 21.4114 17.4835 21.2208 17.9424ZM17.2196 11.0591C17.029 11.0591 17.1243 11.0591 17.2196 11.0591C16.8385 11.0591 16.7432 10.8756 16.648 10.6002C16.648 10.4167 16.648 10.1413 16.5527 9.95778C16.4574 9.59068 16.2669 9.22357 15.8858 8.94824C15.6953 8.85646 15.5048 8.76468 15.3142 8.67291C15.0284 8.58113 14.8379 8.58113 14.5521 8.58113C14.2663 8.48935 14.171 8.3058 14.171 8.03047C14.171 7.84692 14.4568 7.66336 14.6474 7.66336C16.1716 7.75514 17.3149 8.58113 17.5054 10.3249C17.5054 10.4167 17.5054 10.6002 17.5054 10.692C17.5054 10.8756 17.4101 11.0591 17.2196 11.0591ZM16.2669 7.02093C15.7906 6.83737 15.3142 6.65382 14.7426 6.56204C14.5521 6.56204 14.2663 6.47026 14.0758 6.47026C13.79 6.47026 13.5994 6.28671 13.6947 6.01138C13.6947 5.73605 13.8852 5.5525 14.171 5.64427C15.1237 5.73605 15.9811 5.9196 16.8385 6.28671C18.5533 7.1127 19.506 8.48935 19.7918 10.3249C19.7918 10.4167 19.7918 10.5084 19.7918 10.6002C19.7918 10.7838 19.7918 10.9673 19.7918 11.2427C19.7918 11.3344 19.7918 11.4262 19.7918 11.518C19.6965 11.8851 19.0297 11.9769 18.9344 11.518C18.9344 11.4262 18.8391 11.2427 18.8391 11.1509C18.8391 10.3249 18.6486 9.4989 18.2675 8.76468C17.6959 7.93869 17.029 7.38803 16.2669 7.02093ZM21.4114 12.5275C21.1255 12.5275 20.935 12.2522 20.935 11.9769C20.935 11.4262 20.8398 10.8755 20.7445 10.3249C20.3634 7.38803 17.8865 5.00183 14.9332 4.54295C14.4568 4.45117 13.9805 4.45117 13.5994 4.3594C13.3136 4.3594 12.9326 4.3594 12.8373 3.99229C12.742 3.71696 13.0278 3.44163 13.3136 3.44163C13.4089 3.44163 13.5042 3.44163 13.5042 3.44163C17.4101 3.53341 13.6947 3.44163 13.5042 3.44163C17.5054 3.53341 20.8397 6.10316 21.5066 9.95778C21.6019 10.6002 21.6972 11.2427 21.6972 11.9769C21.8877 12.2522 21.6972 12.5275 21.4114 12.5275Z" fill="#BFC5F9"/>
</svg>
