<svg width="28" height="28" viewBox="0 0 28 28" fill="none" xmlns="http://www.w3.org/2000/svg">
<path d="M24.0059 3.98039C21.4382 1.42157 18.0145 0 14.4007 0C6.88765 0 0.801155 6.06536 0.801155 13.5523C0.801155 15.9216 1.46687 18.2908 2.60808 20.281L0.706055 27.2941L7.93377 25.3987C9.9309 26.4412 12.1182 27.0098 14.4007 27.0098C21.9137 27.0098 28.0002 20.9444 28.0002 13.4575C27.9051 9.95098 26.5736 6.53921 24.0059 3.98039ZM20.9627 18.3856C20.6774 19.1438 19.3459 19.902 18.6802 19.9967C18.1096 20.0915 17.3488 20.0915 16.588 19.902C16.1125 19.7124 15.4468 19.5229 14.686 19.1438C11.2623 17.7222 9.07498 14.3105 8.88478 14.0261C8.69458 13.8366 7.45826 12.2255 7.45826 10.5196C7.45826 8.81372 8.31417 8.05555 8.59947 7.67647C8.88478 7.29738 9.26518 7.29738 9.55049 7.29738C9.74069 7.29738 10.026 7.29738 10.2162 7.29738C10.4064 7.29738 10.6917 7.20261 10.977 7.86601C11.2623 8.52941 11.928 10.2353 12.0231 10.3301C12.1182 10.5196 12.1182 10.7092 12.0231 10.8987C11.928 11.0882 11.8329 11.2778 11.6427 11.4673C11.4525 11.6569 11.2623 11.9412 11.1672 12.0359C10.977 12.2255 10.7868 12.415 10.977 12.6993C11.1672 13.0784 11.8329 14.1209 12.879 15.0686C14.2105 16.2059 15.2566 16.585 15.637 16.7745C16.0174 16.9641 16.2076 16.8693 16.3978 16.6797C16.588 16.4902 17.2537 15.732 17.4439 15.3529C17.6341 14.9739 17.9194 15.0686 18.2047 15.1634C18.49 15.2582 20.2019 16.1111 20.4872 16.3007C20.8676 16.4902 21.0578 16.585 21.1529 16.6797C21.248 16.9641 21.248 17.6274 20.9627 18.3856Z" fill="#BFC5F9"/>
</svg>
