<svg width="56" height="70" viewBox="0 0 56 70" fill="none" xmlns="http://www.w3.org/2000/svg">
<path d="M0 47.52H14.88C15.328 49.12 16.096 50.496 17.184 51.648C19.616 54.336 23.168 55.68 27.84 55.68C31.616 55.68 34.56 54.752 36.672 52.896C38.784 50.976 39.84 48.544 39.84 45.6C39.84 42.4 38.784 39.84 36.672 37.92C34.56 36 31.616 35.04 27.84 35.04C24.576 35.04 21.792 35.776 19.488 37.248C18.464 38.016 17.728 38.72 17.28 39.36H2.4L5.28 0H49.44V13.44H17.76L16.8 26.88H17.28C18.176 25.984 19.264 25.184 20.544 24.48C23.616 22.88 27.008 22.08 30.72 22.08C37.632 22.08 43.424 24.384 48.096 28.992C52.832 33.536 55.2 39.072 55.2 45.6C55.2 52.256 52.672 57.856 47.616 62.4C42.624 66.88 36.032 69.12 27.84 69.12C17.408 69.12 9.632 65.536 4.512 58.368C2.272 55.104 0.768 51.488 0 47.52Z" fill="#6F5CEA"/>
</svg>
