<svg width="131" height="71" viewBox="0 0 131 71" fill="none" xmlns="http://www.w3.org/2000/svg">
<path d="M0 48.48H14.88C15.328 50.08 16.096 51.456 17.184 52.608C19.616 55.296 23.168 56.64 27.84 56.64C31.616 56.64 34.56 55.712 36.672 53.856C38.784 51.936 39.84 49.504 39.84 46.56C39.84 43.36 38.784 40.8 36.672 38.88C34.56 36.96 31.616 36 27.84 36C24.576 36 21.792 36.736 19.488 38.208C18.464 38.976 17.728 39.68 17.28 40.32H2.4L5.28 0.959999H49.44V14.4H17.76L16.8 27.84H17.28C18.176 26.944 19.264 26.144 20.544 25.44C23.616 23.84 27.008 23.04 30.72 23.04C37.632 23.04 43.424 25.344 48.096 29.952C52.832 34.496 55.2 40.032 55.2 46.56C55.2 53.216 52.672 58.816 47.616 63.36C42.624 67.84 36.032 70.08 27.84 70.08C17.408 70.08 9.632 66.496 4.512 59.328C2.272 56.064 0.768 52.448 0 48.48Z" fill="#6F5CEA"/>
<path d="M66.099 27.936C62.963 24.8 61.395 20.928 61.395 16.32C61.395 11.712 62.963 7.84 66.099 4.704C69.235 1.568 73.107 0 77.715 0C82.323 0 86.195 1.568 89.331 4.704C92.467 7.84 94.035 11.712 94.035 16.32C94.035 20.928 92.467 24.8 89.331 27.936C86.195 31.072 82.323 32.64 77.715 32.64C73.107 32.64 69.235 31.072 66.099 27.936ZM70.515 68.16L110.835 0.959999H121.875L81.555 68.16H70.515ZM72.915 11.52C71.635 12.8 70.995 14.4 70.995 16.32C70.995 18.24 71.635 19.84 72.915 21.12C74.195 22.4 75.795 23.04 77.715 23.04C79.635 23.04 81.235 22.4 82.515 21.12C83.795 19.84 84.435 18.24 84.435 16.32C84.435 14.4 83.795 12.8 82.515 11.52C81.235 10.24 79.635 9.6 77.715 9.6C75.795 9.6 74.195 10.24 72.915 11.52ZM103.059 64.416C99.923 61.28 98.355 57.408 98.355 52.8C98.355 48.192 99.923 44.32 103.059 41.184C106.195 38.048 110.067 36.48 114.675 36.48C119.283 36.48 123.155 38.048 126.291 41.184C129.427 44.32 130.995 48.192 130.995 52.8C130.995 57.408 129.427 61.28 126.291 64.416C123.155 67.552 119.283 69.12 114.675 69.12C110.067 69.12 106.195 67.552 103.059 64.416ZM109.875 48C108.595 49.28 107.955 50.88 107.955 52.8C107.955 54.72 108.595 56.32 109.875 57.6C111.155 58.88 112.755 59.52 114.675 59.52C116.595 59.52 118.195 58.88 119.475 57.6C120.755 56.32 121.395 54.72 121.395 52.8C121.395 50.88 120.755 49.28 119.475 48C118.195 46.72 116.595 46.08 114.675 46.08C112.755 46.08 111.155 46.72 109.875 48Z" fill="#6F5CEA"/>
</svg>
