<svg width="58" height="72" viewBox="0 0 58 72" fill="none" xmlns="http://www.w3.org/2000/svg">
<path d="M0.359375 50.4C0.359375 44.576 2.66338 40.128 7.27138 37.056C9.19138 35.776 11.5274 34.784 14.2794 34.08V33.12C12.2314 32.352 10.3754 31.328 8.71138 30.048C5.06338 27.168 3.23938 23.392 3.23938 18.72C3.23938 13.6 5.54337 9.216 10.1514 5.568C14.8234 1.856 21.1594 0 29.1594 0C37.1594 0 43.4634 1.856 48.0714 5.568C52.7434 9.216 55.0794 13.6 55.0794 18.72C55.0794 23.328 53.2234 27.104 49.5114 30.048C47.7834 31.328 45.9594 32.352 44.0394 33.12V34.08C46.7274 34.784 49.0314 35.776 50.9514 37.056C55.6234 40.192 57.9594 44.64 57.9594 50.4C57.9594 56.032 55.3674 60.896 50.1834 64.992C45.0634 69.024 38.0554 71.04 29.1594 71.04C20.2634 71.04 13.2234 69.024 8.03937 64.992C2.91937 60.896 0.359375 56.032 0.359375 50.4ZM21.2874 15.552C19.4954 16.896 18.5994 18.592 18.5994 20.64C18.5994 22.688 19.4954 24.416 21.2874 25.824C23.0794 27.168 25.7034 27.84 29.1594 27.84C32.6154 27.84 35.2394 27.168 37.0314 25.824C38.8234 24.416 39.7194 22.688 39.7194 20.64C39.7194 18.592 38.8234 16.896 37.0314 15.552C35.2394 14.144 32.6154 13.44 29.1594 13.44C25.7034 13.44 23.0794 14.144 21.2874 15.552ZM18.9834 42.72C16.8074 44.256 15.7194 46.336 15.7194 48.96C15.7194 51.584 16.8074 53.696 18.9834 55.296C21.2234 56.832 24.6154 57.6 29.1594 57.6C33.7034 57.6 37.0634 56.832 39.2394 55.296C41.4794 53.696 42.5994 51.584 42.5994 48.96C42.5994 46.336 41.4794 44.256 39.2394 42.72C37.0634 41.12 33.7034 40.32 29.1594 40.32C24.6154 40.32 21.2234 41.12 18.9834 42.72Z" fill="#6F5CEA"/>
</svg>
