<svg width="53" height="45" viewBox="0 0 53 45" fill="none" xmlns="http://www.w3.org/2000/svg">
<path d="M0 19.3314V16.2328C0 11.0272 1.23256 7.06096 3.69767 4.3342C6.24496 1.52481 9.73721 0.120117 14.1744 0.120117C17.7899 0.120117 21.8985 1.23561 26.5 3.46659C30.6085 5.78021 33.4845 6.93702 35.1279 6.93702C36.3605 6.93702 37.3876 6.52387 38.2093 5.69758C39.031 4.87129 39.4419 3.83843 39.4419 2.59899V0.739835H53V3.83843C53 9.04406 51.7264 13.0516 49.1791 15.861C46.714 18.5877 43.2628 19.9511 38.8256 19.9511C34.7171 19.9511 30.6085 18.7943 26.5 16.4807L22.0628 14.1258C20.5837 13.4647 19.1868 13.1342 17.8721 13.1342C16.6395 13.1342 15.6124 13.5473 14.7907 14.3736C13.969 15.1999 13.5581 16.2328 13.5581 17.4722V19.3314H0ZM0 43.5004V40.4018C0 35.1962 1.23256 31.23 3.69767 28.5032C6.24496 25.6938 9.73721 24.2891 14.1744 24.2891C17.7899 24.2891 21.8985 25.4046 26.5 27.6356C30.6085 29.9492 33.4845 31.106 35.1279 31.106C36.3605 31.106 37.3876 30.6929 38.2093 29.8666C39.031 29.0403 39.4419 28.0074 39.4419 26.768V24.9089H53V28.0074C53 33.2131 51.7264 37.2206 49.1791 40.03C46.714 42.7567 43.2628 44.1201 38.8256 44.1201C34.7171 44.1201 30.6085 42.9633 26.5 40.6497L22.0628 38.2948C20.5837 37.6337 19.1868 37.3032 17.8721 37.3032C16.6395 37.3032 15.6124 37.7164 14.7907 38.5427C13.969 39.3689 13.5581 40.4018 13.5581 41.6412V43.5004H0Z" fill="#6F5CEA"/>
</svg>
